<svg width="129" height="42" viewBox="0 0 129 42" fill="none" xmlns="http://www.w3.org/2000/svg">
<path d="M13.8289 0H28.0514L40.6103 12.5565V36.6735C40.6103 39.6043 38.2123 42 35.2838 42H13.8289C10.9005 42 8.50244 39.6043 8.50244 36.6735V5.32653C8.50251 2.39555 10.9006 0 13.8289 0Z" fill="#008BF5"/>
<path d="M28.0525 0L40.6114 12.5565H29.4087C28.6622 12.5565 28.0525 11.9492 28.0525 11.2027V0Z" fill="#006FC4"/>
<path d="M2.55941 17.8831H31.4867C32.1276 17.8831 32.6558 18.4087 32.6558 19.052V29.6643C32.6558 30.3076 32.1276 30.8357 31.4867 30.8357H2.55941C1.91612 30.8357 1.39038 30.3076 1.39038 29.6643V19.052C1.39046 18.4087 1.91612 17.8831 2.55941 17.8831Z" fill="#006FC4"/>
<path d="M13.9269 20.0495C12.3498 20.0495 11.0668 21.3325 11.0668 22.9095V25.8092C11.0668 27.3862 12.3499 28.6692 13.9269 28.6692C15.504 28.6692 16.787 27.3861 16.787 25.8092V22.9095C16.787 21.3324 15.504 20.0495 13.9269 20.0495ZM15.4307 25.8092C15.4307 26.6383 14.7561 27.3129 13.9269 27.3129C13.0977 27.3129 12.4231 26.6383 12.4231 25.8092V22.9095C12.4231 22.0803 13.0977 21.4057 13.9269 21.4057C14.7561 21.4057 15.4307 22.0803 15.4307 22.9095V25.8092ZM19.0577 22.9095V25.8092C19.0577 26.6383 19.7323 27.3129 20.5615 27.3129C21.3908 27.3129 22.0654 26.6383 22.0654 25.8092C22.0654 25.4346 22.369 25.131 22.7435 25.131C23.1182 25.131 23.4216 25.4346 23.4216 25.8092C23.4216 27.3862 22.1386 28.6692 20.5615 28.6692C18.9845 28.6692 17.7015 27.3861 17.7015 25.8092V22.9095C17.7015 21.3324 18.9845 20.0495 20.5615 20.0495C22.1387 20.0495 23.4216 21.3325 23.4216 22.9095C23.4216 23.2841 23.1181 23.5877 22.7435 23.5877C22.369 23.5877 22.0654 23.2841 22.0654 22.9095C22.0654 22.0803 21.3908 21.4057 20.5615 21.4057C19.7323 21.4057 19.0577 22.0803 19.0577 22.9095ZM7.17692 20.0495H4.99496C4.62041 20.0495 4.31689 20.3531 4.31689 20.7275V27.9911C4.31689 28.3656 4.62049 28.6692 4.99496 28.6692H7.17692C8.75396 28.6692 10.0369 27.3861 10.0369 25.8092V22.9095C10.037 21.3324 8.75396 20.0495 7.17692 20.0495ZM8.68079 25.8092C8.68079 26.6383 8.00616 27.3129 7.17699 27.3129H5.67312V21.4056H7.17692C8.00608 21.4056 8.6807 22.0802 8.6807 22.9094L8.68079 25.8092ZM29.6284 27.6419C29.8213 27.9629 29.7174 28.3795 29.3963 28.5724C29.2869 28.638 29.1666 28.6693 29.0477 28.6693C28.8175 28.6693 28.593 28.5519 28.4658 28.3403L26.8652 25.6761L25.2645 28.3403C25.1373 28.552 24.9127 28.6693 24.6826 28.6693C24.5636 28.6693 24.4434 28.638 24.334 28.5724C24.013 28.3795 23.909 27.9629 24.1019 27.6419L26.0741 24.3594L24.1019 21.0767C23.909 20.7558 24.013 20.3391 24.334 20.1463C24.6552 19.9535 25.0716 20.0574 25.2645 20.3784L26.8652 23.0427L28.4658 20.3784C28.6587 20.0574 29.0752 19.9535 29.3963 20.1463C29.7173 20.3391 29.8213 20.7558 29.6284 21.0767L27.6562 24.3594L29.6284 27.6419Z" fill="white"/>
<path d="M47.2912 28V14.9091H49.6626V26.0121H55.4283V28H47.2912ZM57.3842 28V18.1818H59.6982V28H57.3842ZM58.5476 16.7884C58.1811 16.7884 57.8658 16.6669 57.6016 16.424C57.3374 16.1768 57.2053 15.8807 57.2053 15.5355C57.2053 15.1861 57.3374 14.8899 57.6016 14.647C57.8658 14.3999 58.1811 14.2763 58.5476 14.2763C58.9183 14.2763 59.2337 14.3999 59.4936 14.647C59.7578 14.8899 59.8899 15.1861 59.8899 15.5355C59.8899 15.8807 59.7578 16.1768 59.4936 16.424C59.2337 16.6669 58.9183 16.7884 58.5476 16.7884ZM70.8475 18.1818L67.351 28H64.7942L61.2978 18.1818H63.7651L66.0215 25.4751H66.1238L68.3865 18.1818H70.8475ZM76.4613 28.1918C75.4769 28.1918 74.6268 27.9872 73.9109 27.5781C73.1992 27.1648 72.6516 26.581 72.2681 25.8267C71.8846 25.0682 71.6928 24.1754 71.6928 23.1484C71.6928 22.1385 71.8846 21.2521 72.2681 20.4893C72.6559 19.7223 73.1971 19.1257 73.8917 18.6996C74.5863 18.2692 75.4023 18.054 76.3398 18.054C76.945 18.054 77.516 18.152 78.0529 18.348C78.5941 18.5398 79.0714 18.8381 79.4847 19.2429C79.9023 19.6477 80.2305 20.1634 80.4691 20.7898C80.7077 21.4119 80.8271 22.1534 80.8271 23.0142V23.7237H72.7795V22.1641H78.609C78.6048 21.7209 78.5089 21.3267 78.3214 20.9815C78.1339 20.6321 77.8718 20.3572 77.5352 20.157C77.2028 19.9567 76.815 19.8565 76.3718 19.8565C75.8988 19.8565 75.4833 19.9716 75.1254 20.2017C74.7674 20.4276 74.4883 20.7259 74.288 21.0966C74.092 21.4631 73.9918 21.8658 73.9876 22.3047V23.6662C73.9876 24.2372 74.092 24.7273 74.3008 25.1364C74.5096 25.5412 74.8015 25.8523 75.1765 26.0696C75.5515 26.2827 75.9904 26.3892 76.4933 26.3892C76.8299 26.3892 77.1346 26.3423 77.4073 26.2486C77.68 26.1506 77.9165 26.0078 78.1168 25.8203C78.3171 25.6328 78.4684 25.4006 78.5707 25.1236L80.7312 25.3665C80.5948 25.9375 80.3349 26.4361 79.9514 26.8622C79.5721 27.2841 79.0863 27.6122 78.494 27.8466C77.9016 28.0767 77.2241 28.1918 76.4613 28.1918ZM87.323 28H82.8869V14.9091H87.4125C88.7122 14.9091 89.8287 15.1712 90.7619 15.6953C91.6994 16.2152 92.4196 16.9631 92.9224 17.9389C93.4252 18.9148 93.6767 20.0824 93.6767 21.4418C93.6767 22.8054 93.4231 23.9773 92.916 24.9574C92.4132 25.9375 91.6866 26.6896 90.7363 27.2138C89.7903 27.7379 88.6525 28 87.323 28ZM85.2583 25.9482H87.2079C88.1199 25.9482 88.8805 25.782 89.4899 25.4496C90.0993 25.1129 90.5574 24.6122 90.8642 23.9474C91.171 23.2784 91.3244 22.4432 91.3244 21.4418C91.3244 20.4403 91.171 19.6094 90.8642 18.9489C90.5574 18.2841 90.1035 17.7876 89.5027 17.4595C88.9061 17.1271 88.1646 16.9609 87.2782 16.9609H85.2583V25.9482ZM100.11 28.1918C99.1515 28.1918 98.3205 27.9808 97.6174 27.5589C96.9142 27.1371 96.3688 26.5469 95.981 25.7884C95.5975 25.0298 95.4057 24.1435 95.4057 23.1293C95.4057 22.1151 95.5975 21.2266 95.981 20.4638C96.3688 19.701 96.9142 19.1087 97.6174 18.6868C98.3205 18.2649 99.1515 18.054 100.11 18.054C101.069 18.054 101.9 18.2649 102.603 18.6868C103.306 19.1087 103.85 19.701 104.233 20.4638C104.621 21.2266 104.815 22.1151 104.815 23.1293C104.815 24.1435 104.621 25.0298 104.233 25.7884C103.85 26.5469 103.306 27.1371 102.603 27.5589C101.9 27.9808 101.069 28.1918 100.11 28.1918ZM100.123 26.3381C100.643 26.3381 101.078 26.1953 101.427 25.9098C101.776 25.62 102.036 25.2322 102.207 24.7464C102.382 24.2607 102.469 23.7195 102.469 23.1229C102.469 22.522 102.382 21.9787 102.207 21.4929C102.036 21.0028 101.776 20.6129 101.427 20.3232C101.078 20.0334 100.643 19.8885 100.123 19.8885C99.5904 19.8885 99.1472 20.0334 98.7935 20.3232C98.4441 20.6129 98.182 21.0028 98.0073 21.4929C97.8368 21.9787 97.7516 22.522 97.7516 23.1229C97.7516 23.7195 97.8368 24.2607 98.0073 24.7464C98.182 25.2322 98.4441 25.62 98.7935 25.9098C99.1472 26.1953 99.5904 26.3381 100.123 26.3381ZM111.061 28.1918C110.081 28.1918 109.24 27.9766 108.537 27.5462C107.838 27.1158 107.299 26.5213 106.919 25.7628C106.544 25 106.357 24.1222 106.357 23.1293C106.357 22.1321 106.549 21.2521 106.932 20.4893C107.316 19.7223 107.857 19.1257 108.556 18.6996C109.259 18.2692 110.09 18.054 111.049 18.054C111.846 18.054 112.551 18.201 113.164 18.495C113.782 18.7848 114.275 19.196 114.641 19.7287C115.007 20.2571 115.216 20.875 115.267 21.5824H113.056C112.966 21.1094 112.753 20.7152 112.417 20.3999C112.084 20.0803 111.639 19.9205 111.081 19.9205C110.608 19.9205 110.192 20.0483 109.834 20.304C109.476 20.5554 109.197 20.9176 108.997 21.3906C108.801 21.8636 108.703 22.4304 108.703 23.0909C108.703 23.7599 108.801 24.3352 108.997 24.8168C109.193 25.294 109.468 25.6626 109.821 25.9226C110.179 26.1783 110.599 26.3061 111.081 26.3061C111.422 26.3061 111.726 26.2422 111.995 26.1143C112.267 25.9822 112.495 25.7926 112.679 25.5455C112.862 25.2983 112.988 24.9979 113.056 24.6442H115.267C115.212 25.3388 115.007 25.9545 114.654 26.4915C114.3 27.0241 113.819 27.4418 113.209 27.7443C112.6 28.0426 111.884 28.1918 111.061 28.1918ZM118.989 18.1818L120.971 21.8061L122.984 18.1818H125.432L122.473 23.0909L125.483 28H123.048L120.971 24.4652L118.912 28H116.458L119.449 23.0909L116.535 18.1818H118.989Z" fill="white"/>
</svg>
