<svg width="42" height="42" viewBox="0 0 42 42" fill="none" xmlns="http://www.w3.org/2000/svg">
<path d="M13.8289 0H28.0514L40.6103 12.5565V36.6735C40.6103 39.6043 38.2123 42 35.2838 42H13.8289C10.9005 42 8.50244 39.6043 8.50244 36.6735V5.32653C8.50251 2.39555 10.9006 0 13.8289 0Z" fill="#008BF5"/>
<path d="M28.0525 0L40.6114 12.5565H29.4087C28.6622 12.5565 28.0525 11.9492 28.0525 11.2027V0Z" fill="#006FC4"/>
<path d="M2.55941 17.8831H31.4867C32.1276 17.8831 32.6558 18.4087 32.6558 19.052V29.6643C32.6558 30.3076 32.1276 30.8357 31.4867 30.8357H2.55941C1.91612 30.8357 1.39038 30.3076 1.39038 29.6643V19.052C1.39046 18.4087 1.91612 17.8831 2.55941 17.8831Z" fill="#006FC4"/>
<path d="M13.9269 20.0495C12.3498 20.0495 11.0668 21.3325 11.0668 22.9095V25.8092C11.0668 27.3862 12.3499 28.6692 13.9269 28.6692C15.504 28.6692 16.787 27.3861 16.787 25.8092V22.9095C16.787 21.3324 15.504 20.0495 13.9269 20.0495ZM15.4307 25.8092C15.4307 26.6383 14.7561 27.3129 13.9269 27.3129C13.0977 27.3129 12.4231 26.6383 12.4231 25.8092V22.9095C12.4231 22.0803 13.0977 21.4057 13.9269 21.4057C14.7561 21.4057 15.4307 22.0803 15.4307 22.9095V25.8092ZM19.0577 22.9095V25.8092C19.0577 26.6383 19.7323 27.3129 20.5615 27.3129C21.3908 27.3129 22.0654 26.6383 22.0654 25.8092C22.0654 25.4346 22.369 25.131 22.7435 25.131C23.1182 25.131 23.4216 25.4346 23.4216 25.8092C23.4216 27.3862 22.1386 28.6692 20.5615 28.6692C18.9845 28.6692 17.7015 27.3861 17.7015 25.8092V22.9095C17.7015 21.3324 18.9845 20.0495 20.5615 20.0495C22.1387 20.0495 23.4216 21.3325 23.4216 22.9095C23.4216 23.2841 23.1181 23.5877 22.7435 23.5877C22.369 23.5877 22.0654 23.2841 22.0654 22.9095C22.0654 22.0803 21.3908 21.4057 20.5615 21.4057C19.7323 21.4057 19.0577 22.0803 19.0577 22.9095ZM7.17692 20.0495H4.99496C4.62041 20.0495 4.31689 20.3531 4.31689 20.7275V27.9911C4.31689 28.3656 4.62049 28.6692 4.99496 28.6692H7.17692C8.75396 28.6692 10.0369 27.3861 10.0369 25.8092V22.9095C10.037 21.3324 8.75396 20.0495 7.17692 20.0495ZM8.68079 25.8092C8.68079 26.6383 8.00616 27.3129 7.17699 27.3129H5.67312V21.4056H7.17692C8.00608 21.4056 8.6807 22.0802 8.6807 22.9094L8.68079 25.8092ZM29.6284 27.6419C29.8213 27.9629 29.7174 28.3795 29.3963 28.5724C29.2869 28.638 29.1666 28.6693 29.0477 28.6693C28.8175 28.6693 28.593 28.5519 28.4658 28.3403L26.8652 25.6761L25.2645 28.3403C25.1373 28.552 24.9127 28.6693 24.6826 28.6693C24.5636 28.6693 24.4434 28.638 24.334 28.5724C24.013 28.3795 23.909 27.9629 24.1019 27.6419L26.0741 24.3594L24.1019 21.0767C23.909 20.7558 24.013 20.3391 24.334 20.1463C24.6552 19.9535 25.0716 20.0574 25.2645 20.3784L26.8652 23.0427L28.4658 20.3784C28.6587 20.0574 29.0752 19.9535 29.3963 20.1463C29.7173 20.3391 29.8213 20.7558 29.6284 21.0767L27.6562 24.3594L29.6284 27.6419Z" fill="white"/>
</svg>
