<svg width="16" height="16" viewBox="0 0 16 16" fill="none" xmlns="http://www.w3.org/2000/svg">
<path d="M10.8 9.46005C10.86 9.49005 10.93 9.50005 11 9.50005C11.12 9.50005 11.25 9.46005 11.34 9.37005L14.84 6.12005C14.8908 6.0727 14.9312 6.01542 14.9589 5.95177C14.9866 5.88812 15.0008 5.81945 15.0008 5.75005C15.0008 5.68064 14.9866 5.61198 14.9589 5.54832C14.9312 5.48467 14.8908 5.42739 14.84 5.38005L11.34 2.13005C11.2679 2.06527 11.1787 2.02239 11.0831 2.00645C10.9875 1.99051 10.8893 2.00216 10.8 2.04005C10.62 2.12005 10.5 2.30005 10.5 2.50005V4.02005C6.05 4.34005 6 8.95005 6 9.00005C5.99873 9.10289 6.02947 9.20359 6.08796 9.2882C6.14645 9.37281 6.2298 9.43714 6.32646 9.47229C6.42312 9.50744 6.52832 9.51167 6.62749 9.48439C6.72667 9.45712 6.81491 9.39968 6.88 9.32005L6.885 9.31405C6.982 9.20705 8.318 7.72405 10.5 7.52005V9.00005C10.5 9.20005 10.62 9.38005 10.8 9.46005ZM11.5 7.00005C11.5 6.72005 11.28 6.50005 11 6.50005C9.33 6.50005 8.05 7.14005 7.21 7.72005C7.56 6.55005 8.5 5.00005 11 5.00005C11.28 5.00005 11.5 4.78005 11.5 4.50005V3.65005L13.77 5.75005L11.5 7.85005V7.00005ZM8 3.50005C8 3.36744 7.94732 3.24026 7.85355 3.14649C7.75979 3.05273 7.63261 3.00005 7.5 3.00005H6.5C5.83696 3.00005 5.20107 3.26344 4.73223 3.73228C4.26339 4.20112 4 4.83701 4 5.50005V9.50005C4 9.82835 4.06466 10.1534 4.1903 10.4568C4.31594 10.7601 4.50009 11.0357 4.73223 11.2678C5.20107 11.7367 5.83696 12 6.5 12H10.5C11.0767 12 11.6357 11.8006 12.0823 11.4355C12.5288 11.0705 12.8353 10.5623 12.95 9.99705C13.005 9.72705 12.776 9.50005 12.5 9.50005C12.224 9.50005 12.008 9.73005 11.918 9.99005C11.8161 10.285 11.6247 10.5408 11.3705 10.7218C11.1163 10.9028 10.812 11.0001 10.5 11H6.5C6.10218 11 5.72064 10.842 5.43934 10.5607C5.15804 10.2794 5 9.89787 5 9.50005V5.50005C5 5.10222 5.15804 4.72069 5.43934 4.43939C5.72064 4.15808 6.10218 4.00005 6.5 4.00005H7.5C7.63261 4.00005 7.75979 3.94737 7.85355 3.8536C7.94732 3.75983 8 3.63266 8 3.50005ZM3 5.50005C2.393 5.95605 2 6.68205 2 7.50005V9.50005C2 10.6935 2.47411 11.8381 3.31802 12.682C4.16193 13.5259 5.30653 14 6.5 14H8.5C9.318 14 10.044 13.607 10.5 13H6.5C5.57174 13 4.6815 12.6313 4.02513 11.9749C3.36875 11.3185 3 10.4283 3 9.50005V5.50005Z" fill="white"/>
</svg>
